<svg xmlns="http://www.w3.org/2000/svg" viewBox="0 0 378.29 212.27"><defs><style>.cls-1{fill:#e7f3fe;}.cls-2{fill:#9ec8ff;}.cls-3{fill:#fff;}.cls-4{opacity:0.8;}.cls-5{fill:#f37168;}.cls-6{fill:#cce2ff;}.cls-14,.cls-7{fill:#99bbeb;}.cls-8{fill:#9bd6e8;}.cls-9{fill:#3a384d;}.cls-10{fill:#f09959;}.cls-11{fill:#e38540;}.cls-12{fill:#7a4e34;}.cls-13{fill:#d54a41;}.cls-14{opacity:0.2;}.cls-15{fill:#2e2d3d;}.cls-16{fill:#d5e1e8;}.cls-17{fill:#bdccd4;}.cls-18{fill:#2e5b9a;}.cls-19{fill:#6791c9;}.cls-20{fill:#75a1de;}.cls-21{fill:#f2e5de;}.cls-22{fill:#303c60;}.cls-23{fill:#74b570;}.cls-24{fill:#9cd499;}</style></defs><g id="Layer_2" data-name="Layer 2"><g id="Content"><path class="cls-1" d="M54.86,19.68C106.53.5,159,17.45,194.66,54.39S305,28.9,344.67,65.77c27.05,25.17,14.66,89.87-22.44,117.9C271.81,221.76,118.47,202.43,85.3,196c-38.21-7.47-66.15-30.13-77.5-57.63C-19.55,72.05,32,28.16,54.86,19.68Z"/><path class="cls-2" d="M231.47,46.33a44.12,44.12,0,0,0,.27-4.77c0-.85,0-1.69-.08-2.53l-7.87-2.54A34.39,34.39,0,0,0,221,27.06l5.22-6.42a42.94,42.94,0,0,0-4.13-6l-7.87,2.57a34.93,34.93,0,0,0-7.79-6l.44-8.27A41.15,41.15,0,0,0,200,.51l-4.86,6.7A34.84,34.84,0,0,0,185.32,7L180.82,0a42,42,0,0,0-7,2.07v8.28a34.82,34.82,0,0,0-8.1,5.57l-7.72-3a42.48,42.48,0,0,0-4.45,5.78l4.88,6.69a34.55,34.55,0,0,0-3.29,9.27l-8,2.12a41.67,41.67,0,0,0-.27,4.76c0,.85,0,1.7.08,2.53l7.87,2.55a34.48,34.48,0,0,0,2.78,9.43l-5.21,6.42a42.67,42.67,0,0,0,4.13,6l7.87-2.57a35,35,0,0,0,7.79,6l-.45,8.27a41.79,41.79,0,0,0,6.87,2.43l4.86-6.7a35.34,35.34,0,0,0,9.83.25l4.5,7a42,42,0,0,0,7-2.07V72.78a34.82,34.82,0,0,0,8.1-5.57l7.72,3a41.63,41.63,0,0,0,4.44-5.78l-4.87-6.69a34.55,34.55,0,0,0,3.29-9.27ZM189.32,58.2A16.64,16.64,0,1,1,206,41.56,16.64,16.64,0,0,1,189.32,58.2Z"/><path class="cls-3" d="M212,60.54a.67.67,0,0,1-.4-.14.63.63,0,0,1-.08-.88,28.11,28.11,0,0,0,5-27.11.62.62,0,0,1,1.18-.41,29.41,29.41,0,0,1-5.18,28.31A.62.62,0,0,1,212,60.54Z"/><path class="cls-3" d="M209.6,21.27a.58.58,0,0,1-.42-.17,28,28,0,0,0-9.68-6,.61.61,0,0,1-.37-.79.63.63,0,0,1,.8-.38A29.3,29.3,0,0,1,210,20.2a.62.62,0,0,1,0,.88A.6.6,0,0,1,209.6,21.27Z"/><path class="cls-3" d="M182.87,14.34a.62.62,0,0,1-.16-1.23,29.6,29.6,0,0,1,7.21-.89.63.63,0,0,1,0,1.25,28,28,0,0,0-6.9.85Z"/><path class="cls-2" d="M97.75,151.67a29.85,29.85,0,0,0,.19-3.3c0-.59,0-1.17-.06-1.75l-5.45-1.77a23.69,23.69,0,0,0-1.93-6.53l3.62-4.44a30.14,30.14,0,0,0-2.86-4.17l-5.46,1.78a24.28,24.28,0,0,0-5.39-4.15l.31-5.72A28.6,28.6,0,0,0,76,119.93l-3.37,4.65a23.32,23.32,0,0,0-4-.34,23,23,0,0,0-2.77.16l-3.12-4.82A29,29,0,0,0,57.83,121v5.74a24.19,24.19,0,0,0-5.61,3.85l-5.35-2.06a28.64,28.64,0,0,0-3.08,4l3.38,4.63a23.93,23.93,0,0,0-2.28,6.42l-5.54,1.47a29.86,29.86,0,0,0-.18,3.3c0,.59,0,1.17,0,1.75l5.45,1.77a24.39,24.39,0,0,0,1.93,6.53L43,162.86A29,29,0,0,0,45.86,167l5.45-1.78a24.23,24.23,0,0,0,5.4,4.14l-.31,5.73a29.53,29.53,0,0,0,4.76,1.69l3.36-4.65a24.47,24.47,0,0,0,4,.34,23,23,0,0,0,2.77-.16l3.12,4.82a29.32,29.32,0,0,0,4.84-1.43V170a24.13,24.13,0,0,0,5.61-3.86l5.35,2.07a29.42,29.42,0,0,0,3.08-4l-3.38-4.63a23.93,23.93,0,0,0,2.28-6.42Zm-29.19,8.22a11.52,11.52,0,1,1,11.52-11.52A11.52,11.52,0,0,1,68.56,159.89Z"/><path class="cls-3" d="M84.28,161.7a.59.59,0,0,1-.4-.14.62.62,0,0,1-.08-.88,19.35,19.35,0,0,0,3.4-18.59.63.63,0,0,1,.38-.79.62.62,0,0,1,.79.39,20.49,20.49,0,0,1-3.62,19.79A.6.6,0,0,1,84.28,161.7Z"/><path class="cls-3" d="M82.61,134.51a.63.63,0,0,1-.43-.17,19.17,19.17,0,0,0-6.63-4.09.62.62,0,1,1,.42-1.17A20.4,20.4,0,0,1,83,133.43a.62.62,0,0,1-.42,1.08Z"/><path class="cls-3" d="M64.09,129.7a.62.62,0,0,1-.6-.47.61.61,0,0,1,.45-.75,20.21,20.21,0,0,1,5-.63.63.63,0,1,1,0,1.25,19.76,19.76,0,0,0-4.73.58A.39.39,0,0,1,64.09,129.7Z"/><path class="cls-2" d="M256.87,78q0-.48,0-1l4.09-3.28a21.54,21.54,0,0,0-1.49-4.69l-5.27-.4a17.67,17.67,0,0,0-4.56-4.84l0-5.25a22.25,22.25,0,0,0-4.68-1.81l-3.6,3.88a16.84,16.84,0,0,0-1.89-.1,17.35,17.35,0,0,0-4.59.61L230.7,57.9a21.9,21.9,0,0,0-4.38,2.53l.79,5.21A17.35,17.35,0,0,0,223.43,71l-5.15,1.19a22.51,22.51,0,0,0-.76,5l4.53,2.62a17.41,17.41,0,0,0,1.94,6.4l-2.27,4.74a22.05,22.05,0,0,0,3.33,3.63l4.86-1.9a17.4,17.4,0,0,0,6.4,2.54l2.29,4.71.82,0a22.18,22.18,0,0,0,4-.37l1.54-5a17.45,17.45,0,0,0,6-3.5l5.11,1.15a22,22,0,0,0,2.72-4l-3-4.34A17.39,17.39,0,0,0,256.87,78ZM239.23,85.7a7.35,7.35,0,1,1,7.35-7.35A7.35,7.35,0,0,1,239.23,85.7Z"/><g class="cls-4"><path class="cls-2" d="M324.82,35.66H318.5a4.42,4.42,0,0,1-4.42-4.42V24.92a4.42,4.42,0,0,1,4.42-4.42h6.32a4.43,4.43,0,0,1,4.43,4.42v6.32A4.43,4.43,0,0,1,324.82,35.66ZM318.5,22.24a2.68,2.68,0,0,0-2.68,2.68v6.32a2.68,2.68,0,0,0,2.68,2.68h6.32a2.68,2.68,0,0,0,2.68-2.68V24.92a2.68,2.68,0,0,0-2.68-2.68Z"/></g><g class="cls-4"><path class="cls-2" d="M295.09,35.66h-6.31a4.43,4.43,0,0,1-4.43-4.42V24.92a4.43,4.43,0,0,1,4.43-4.42h6.31a4.43,4.43,0,0,1,4.43,4.42v6.32A4.43,4.43,0,0,1,295.09,35.66Zm-6.31-13.42a2.69,2.69,0,0,0-2.69,2.68v6.32a2.69,2.69,0,0,0,2.69,2.68h6.31a2.69,2.69,0,0,0,2.69-2.68V24.92a2.69,2.69,0,0,0-2.69-2.68Z"/></g><path class="cls-5" d="M292.33,32h0a.71.71,0,0,1-.55-.29l-4.54-5.92a.76.76,0,0,1,.13-1.05.75.75,0,0,1,1.05.14l4,5.22,10.45-11.2a.74.74,0,0,1,1.05,0,.73.73,0,0,1,0,1L292.87,31.75A.73.73,0,0,1,292.33,32Z"/><path class="cls-6" d="M345.7,198.82c-25.86-1.26-113.85.88-140.61,1.71s-57.82-1.1-74-3.95-109.4.25-105.17,7.9,41.55,3.43,83.88,6.51,137.51-.39,159,0,41.16-.77,68.83-2.31S360.7,199.55,345.7,198.82Z"/><rect class="cls-7" x="27.27" y="38.68" width="54.07" height="88.62"/><rect class="cls-3" x="30.1" y="40.49" width="49.46" height="83.44"/><path class="cls-8" d="M44.9,73.94c1.86-4,5-5.28,10.18-5.28,6.16,0,9.36,2.23,10.27,5.48C54.32,74.29,44.9,73.94,44.9,73.94Z"/><path class="cls-9" d="M52.93,49.18c-2.61.73-2.49,2.2-3.36,3.56s-2.76,2.26-3,3.17.58,2.8-.37,3.85-1.29,1.59-.91,2.65,1.21,2.72,1.28,3a4.31,4.31,0,0,0,2.42,2,26.5,26.5,0,0,1,4.91,1.13c1.21.53,5.1-.68,7.26-.6s3.62-1.52,3.47-2.57,1.59-3.18,1.59-5S64,57,63.36,55.68s.07-3.55-2.19-4.89c-1.44-.85-2.42-.77-3.56-1.15A8.34,8.34,0,0,0,52.93,49.18Z"/><path class="cls-10" d="M56.1,71.85c-.59.88-1,.91-1.66,0a8.2,8.2,0,0,1-1.51-3.19V60.37a1.52,1.52,0,0,1,1.51-1.51H56.1a1.52,1.52,0,0,1,1.51,1.51v8.29A8.31,8.31,0,0,1,56.1,71.85Z"/><path class="cls-11" d="M56.1,58.86H54.44a1.52,1.52,0,0,0-1.51,1.51v7.4c1.87.59,3.57-.59,4.68-1.92V60.37A1.52,1.52,0,0,0,56.1,58.86Z"/><ellipse class="cls-10" cx="55.27" cy="58.94" rx="5.02" ry="6.85"/><path class="cls-9" d="M57.61,53.49c-3.17,5.37-7.85,4.84-7.85,4.84s.11-7.1,3.83-7.48S59.5,52,60.26,54.43a6.06,6.06,0,0,1,0,4.09,6.53,6.53,0,0,1-1.81-2.46A17.57,17.57,0,0,1,57.61,53.49Z"/><ellipse class="cls-10" cx="49.57" cy="59.4" rx="1.32" ry="1.98" transform="translate(-20.69 27.01) rotate(-25.41)"/><path class="cls-10" d="M59.56,58.84c-.47,1-.32,2,.34,2.36s1.57-.24,2-1.23.32-2-.34-2.36S60,57.85,59.56,58.84Z"/><path class="cls-3" d="M57.16,62.66a2.85,2.85,0,0,1-1.89,1.09,2.88,2.88,0,0,1-1.89-1.09Z"/><path class="cls-7" d="M61.25,84.81H48.56a1.48,1.48,0,0,1,0-3H61.25a1.48,1.48,0,1,1,0,3Z"/><path class="cls-7" d="M63.58,89.34H46.24a1.48,1.48,0,0,1,0-3H63.58a1.48,1.48,0,0,1,0,3Z"/><path class="cls-7" d="M76,105.64H33.82a.85.85,0,0,1-.85-.85.86.86,0,0,1,.85-.86H76a.86.86,0,1,1,0,1.71Z"/><path class="cls-7" d="M76,109.62H33.82a.86.86,0,0,1,0-1.71H76a.86.86,0,1,1,0,1.71Z"/><path class="cls-7" d="M76,113.6H33.82a.86.86,0,0,1,0-1.71H76a.86.86,0,1,1,0,1.71Z"/><path class="cls-7" d="M70.1,74.93H39.72a1.54,1.54,0,0,1-1.53-1.53v-28a1.53,1.53,0,0,1,1.53-1.53H70.1a1.52,1.52,0,0,1,1.52,1.53v28A1.53,1.53,0,0,1,70.1,74.93ZM39.72,45.12a.29.29,0,0,0-.28.29v28a.3.3,0,0,0,.28.29H70.1a.3.3,0,0,0,.28-.29v-28a.29.29,0,0,0-.28-.29Z"/><polygon class="cls-7" points="44.11 93.19 44.98 94.97 46.95 95.26 45.53 96.64 45.86 98.6 44.11 97.68 42.35 98.6 42.68 96.64 41.26 95.26 43.23 94.97 44.11 93.19"/><polygon class="cls-7" points="51.31 93.19 52.19 94.97 54.15 95.26 52.73 96.64 53.07 98.6 51.31 97.68 49.55 98.6 49.88 96.64 48.46 95.26 50.43 94.97 51.31 93.19"/><polygon class="cls-7" points="58.51 93.19 59.39 94.97 61.36 95.26 59.93 96.64 60.27 98.6 58.51 97.68 56.75 98.6 57.09 96.64 55.66 95.26 57.63 94.97 58.51 93.19"/><polygon class="cls-7" points="65.71 93.19 66.59 94.97 68.56 95.26 67.14 96.64 67.47 98.6 65.71 97.68 63.95 98.6 64.29 96.64 62.87 95.26 64.83 94.97 65.71 93.19"/><rect class="cls-7" x="147.81" y="38.68" width="54.07" height="88.62"/><rect class="cls-3" x="150.64" y="40.49" width="49.46" height="83.44"/><path class="cls-12" d="M167.78,58.49c0,4,2.39,10.37,8,10.17s6.88-6.31,7.1-8S167.78,58.49,167.78,58.49Z"/><path class="cls-13" d="M165.43,73.94c1.86-4,5-5.28,10.19-5.28,6.16,0,9.36,2.23,10.26,5.48C174.85,74.29,165.43,73.94,165.43,73.94Z"/><path class="cls-10" d="M176.64,71.85c-.59.88-1,.91-1.66,0a8.2,8.2,0,0,1-1.51-3.19V60.37A1.52,1.52,0,0,1,175,58.86h1.66a1.52,1.52,0,0,1,1.51,1.51v8.29A8.31,8.31,0,0,1,176.64,71.85Z"/><path class="cls-11" d="M176.64,58.86H175a1.52,1.52,0,0,0-1.51,1.51v7.4c1.86.59,3.57-.59,4.68-1.92V60.37A1.52,1.52,0,0,0,176.64,58.86Z"/><ellipse class="cls-10" cx="175.81" cy="58.94" rx="5.02" ry="6.85"/><path class="cls-12" d="M178.57,53.74c-.6,2.1-1.91,2.08-3.73,2.77s-2.7,1.39-3.29,2.73c-.77,1.72.34,6.73.34,6.73s-4.62-3.46-4.08-8.89,3.74-7.55,6.75-7.55a4.85,4.85,0,0,1,4.17,1.84,4.53,4.53,0,0,1,3.12,1.81c2.05,2.42,1.42,8.3,0,10.4s-2.35,2.77-2.32,2.67,1.32-4.93.63-7.92A18.83,18.83,0,0,0,178.57,53.74Z"/><path class="cls-3" d="M177.7,62.66a2.88,2.88,0,0,1-1.89,1.09,2.85,2.85,0,0,1-1.89-1.09Z"/><path class="cls-7" d="M181.79,84.81H169.1a1.48,1.48,0,1,1,0-3h12.69a1.48,1.48,0,0,1,0,3Z"/><path class="cls-7" d="M184.11,89.34H166.78a1.48,1.48,0,1,1,0-3h17.33a1.48,1.48,0,1,1,0,3Z"/><path class="cls-7" d="M196.53,105.64H154.36a.86.86,0,1,1,0-1.71h42.17a.86.86,0,1,1,0,1.71Z"/><path class="cls-7" d="M196.53,109.62H154.36a.86.86,0,1,1,0-1.71h42.17a.86.86,0,1,1,0,1.71Z"/><path class="cls-7" d="M196.53,113.6H154.36a.86.86,0,1,1,0-1.71h42.17a.86.86,0,1,1,0,1.71Z"/><path class="cls-7" d="M190.63,74.93H160.26a1.54,1.54,0,0,1-1.53-1.53v-28a1.53,1.53,0,0,1,1.53-1.53h30.37a1.53,1.53,0,0,1,1.53,1.53v28A1.54,1.54,0,0,1,190.63,74.93ZM160.26,45.12a.29.29,0,0,0-.29.29v28a.3.3,0,0,0,.29.29h30.37a.3.3,0,0,0,.29-.29v-28a.29.29,0,0,0-.29-.29Z"/><polygon class="cls-7" points="164.64 93.19 165.52 94.97 167.49 95.26 166.06 96.64 166.4 98.6 164.64 97.68 162.88 98.6 163.22 96.64 161.79 95.26 163.76 94.97 164.64 93.19"/><polygon class="cls-7" points="171.84 93.19 172.72 94.97 174.69 95.26 173.27 96.64 173.6 98.6 171.84 97.68 170.09 98.6 170.42 96.64 169 95.26 170.96 94.97 171.84 93.19"/><polygon class="cls-7" points="179.05 93.19 179.93 94.97 181.89 95.26 180.47 96.64 180.81 98.6 179.05 97.68 177.29 98.6 177.62 96.64 176.2 95.26 178.17 94.97 179.05 93.19"/><polygon class="cls-7" points="186.25 93.19 187.13 94.97 189.09 95.26 187.67 96.64 188.01 98.6 186.25 97.68 184.49 98.6 184.83 96.64 183.4 95.26 185.37 94.97 186.25 93.19"/><polygon class="cls-14" points="153.88 126.41 68.56 126.41 74.59 39.01 156.96 39.01 153.88 126.41"/><rect class="cls-7" x="77.52" y="22.47" width="73.85" height="121.04"/><rect class="cls-3" x="81.39" y="24.94" width="67.55" height="113.96"/><path class="cls-15" d="M108.87,48.87c-.05-.14-1.23-6.93-1.37-9.57s4.24-3,4.24-3,3.58-1.94,6.18-.95a10.47,10.47,0,0,1,5.53,4.73c1.18,2.08-1,8.54-1,8.54Z"/><path class="cls-16" d="M100.74,70.68c0-.11.3-2.78.32-2.89.59-5.62,7.53-7.2,14.45-7.2,8.13,0,13.64,1.48,14.52,7.33,0,.17.5,2.85.47,3C115.44,71.15,100.74,70.68,100.74,70.68Z"/><path class="cls-10" d="M116.9,65c-.8,1.19-1.39,1.24-2.27,0-.69-1-3-3.23-3-4.36l.95-11.32a2.07,2.07,0,0,1,2.06-2.07h2.27A2.07,2.07,0,0,1,119,49.27l.44,11.32C119.41,61.72,117.62,63.89,116.9,65Z"/><path class="cls-11" d="M116.9,47.2h-2.27a2.07,2.07,0,0,0-2.06,2.07l-.83,10c2.55.81,6-.84,7.52-2.66L119,49.27A2.07,2.07,0,0,0,116.9,47.2Z"/><path class="cls-17" d="M108,61.41l3.64,6.73s1.94-1.6,2.13-1.29a28.68,28.68,0,0,1-.34,4.28,37,37,0,0,0,4.52-.13c.19-.19-.88-4.31-.44-4.31s1.77,1.2,1.77,1.2l4.06-6.48-.89-.22-6.66,3.59-7.12-3.51Z"/><polygon class="cls-13" points="112.14 64.51 114.84 66.33 114 71.14 117.65 70.94 116.74 66.56 118.98 64.51 117.93 63.52 113.19 63.52 112.14 64.51"/><path class="cls-16" d="M111.8,58.11l-3.34,3.19s3.41,6,3.6,6S115,64,115,64l1.73,0,2.73,2.87,3.17-5.62-3.23-3.43s-2.77,5.34-3.27,5.47-.51.19-.92-.13S111.8,58.11,111.8,58.11Z"/><ellipse class="cls-10" cx="115.77" cy="47.32" rx="6.86" ry="9.35"/><path class="cls-10" d="M109.61,47.17c.64,1.35.43,2.8-.47,3.22s-2.15-.32-2.8-1.67-.43-2.79.47-3.22S109,45.82,109.61,47.17Z"/><path class="cls-10" d="M121.62,47.17c-.64,1.35-.43,2.8.47,3.22s2.15-.32,2.79-1.67.43-2.79-.47-3.22S122.26,45.82,121.62,47.17Z"/><path class="cls-3" d="M118.81,51.15s-1.36,2.21-3,2.21-3-2.21-3-2.21Z"/><path class="cls-15" d="M111.74,41c2.83-2,4.1-1.65,6.22,1.61s4.67,3.31,4.67,3.31l.33-3.38s-3.16-6.11-7.4-5.31a11.22,11.22,0,0,0-6.66,4.62s-.2,7.16.39,7.4.66-2.31,1.08-2.82-.42-3,.15-4.11S111.74,41,111.74,41Z"/><path class="cls-15" d="M120.84,44.63c1,1.08.61,5.38,1.13,5.33s.71-4.1.57-4.53S120.84,44.63,120.84,44.63Z"/><path class="cls-7" d="M131,85.47H99.51a2,2,0,1,1,0-4H131a2,2,0,1,1,0,4Z"/><path class="cls-7" d="M127.11,91.66H103.43a2,2,0,0,1,0-4h23.68a2,2,0,1,1,0,4Z"/><path class="cls-7" d="M144.07,113.93H86.47a1.17,1.17,0,1,1,0-2.34h57.6a1.17,1.17,0,1,1,0,2.34Z"/><path class="cls-7" d="M144.07,119.36H86.47a1.17,1.17,0,1,1,0-2.33h57.6a1.17,1.17,0,1,1,0,2.33Z"/><path class="cls-7" d="M144.07,124.8H86.47a1.17,1.17,0,0,1,0-2.34h57.6a1.17,1.17,0,1,1,0,2.34Z"/><path class="cls-7" d="M136,71.75H94.53a1.86,1.86,0,0,1-1.86-1.86V31.66a1.86,1.86,0,0,1,1.86-1.86H136a1.86,1.86,0,0,1,1.86,1.86V69.89A1.86,1.86,0,0,1,136,71.75ZM94.53,31a.62.62,0,0,0-.62.62V69.89a.62.62,0,0,0,.62.62H136a.62.62,0,0,0,.62-.62V31.66A.62.62,0,0,0,136,31Z"/><polygon class="cls-7" points="95.52 96.92 96.72 99.35 99.41 99.74 97.46 101.64 97.92 104.31 95.52 103.05 93.12 104.31 93.58 101.64 91.63 99.74 94.32 99.35 95.52 96.92"/><polygon class="cls-7" points="105.36 96.92 106.56 99.35 109.24 99.74 107.3 101.64 107.76 104.31 105.36 103.05 102.95 104.31 103.41 101.64 101.47 99.74 104.15 99.35 105.36 96.92"/><polygon class="cls-7" points="115.19 96.92 116.39 99.35 119.08 99.74 117.14 101.64 117.59 104.31 115.19 103.05 112.79 104.31 113.25 101.64 111.31 99.74 113.99 99.35 115.19 96.92"/><polygon class="cls-7" points="125.03 96.92 126.23 99.35 128.92 99.74 126.97 101.64 127.43 104.31 125.03 103.05 122.63 104.31 123.09 101.64 121.14 99.74 123.83 99.35 125.03 96.92"/><polygon class="cls-7" points="135.02 96.92 136.22 99.35 138.91 99.74 136.97 101.64 137.43 104.31 135.02 103.05 132.62 104.31 133.08 101.64 131.14 99.74 133.82 99.35 135.02 96.92"/><rect class="cls-18" x="174.18" y="136.01" width="96.82" height="3.61" rx="1.8"/><path class="cls-10" d="M294.37,87.66c1.28,4.52-1.85,9.19-5.31,10.17s-5.92-2.1-7.2-6.62.47-9,3.93-10S293.08,83.13,294.37,87.66Z"/><path class="cls-10" d="M275,175.37s8.85,13.75,10.05,14.35,4.18.75,3.06,3-1.57,11.06-2.61,11.51-10,1.49-8.67,0,2.17-.75,2.85-3.44,1.63-7.77.36-8.82-9-10.46-9-10.46Z"/><path class="cls-10" d="M230.44,181.28S219.68,199,217.69,200.61s-8.57,4-3.19,4.38,8-1.79,11.36-2.79,7.57-1.59,6-4.18-.94-8.25,2.5-11.84S230.44,181.28,230.44,181.28Z"/><path class="cls-19" d="M285.36,140.15s-26.64-.7-37.2,8c-6.18,9.36-21.13,37-22.29,40,.8.8,5.28,2.23,7.28,2,5.87-7,13.65-13.07,16.74-18.56,3.8-6.78,5-10.17,11.16-10.77s20.13-2.59,24.31-2.59S285.36,140.15,285.36,140.15Z"/><polygon class="cls-18" points="308.59 205.04 307.2 205.04 297.18 163.26 300.25 163.26 308.59 205.04"/><polygon class="cls-18" points="266.76 205.04 268.16 205.04 279.65 161.78 276.58 161.78 266.76 205.04"/><path class="cls-20" d="M300.54,138.32,285.05,141s-20.58.19-30,1.95c-8.56,1.59-9.82,11.32,0,24.71,5.58,7.61,10.29,13.68,19.94,20.52,2.45-1.8,3.39-2.48,4.07-6.82-.7-1-2.5-6.95-3.06-8.12-5.34-11.15-12.46-15.21-12.56-16.31,1.19-1.94,31.67,10.13,37.73,3C307,153.17,300.54,138.32,300.54,138.32Z"/><path class="cls-5" d="M301.18,103.26a16.19,16.19,0,0,0-12.12,3c-3.39,3.46-7.23,9.17-7,18.59.3,12-1.85,12.72.39,16,9.35,3.86,25.35,20.45,21.58,2.66-2.73-12.87,6-22.47-1-36.76C302.41,105.61,301.7,104.48,301.18,103.26Z"/><path class="cls-13" d="M282.06,129.35c-.18,6.24-1.06,8.08-.39,10,3.81.39,10.78,1.91,12.53,4.35,2,2.79,4,3.19,3.05,1.13s-3.39-5,.4-15,5.58-16.81,1.86-23.78Z"/><path class="cls-10" d="M301.18,103.26a48.81,48.81,0,0,1-3.13-12.63l-6.57,1.94s3.73,8.37.15,11.36c-.77.64-1.65,1.41-2.57,2.34A16.19,16.19,0,0,1,301.18,103.26Z"/><path class="cls-11" d="M298.25,92.21,296.86,91l-5.36,1.58v0a22,22,0,0,1,1.67,6.55,18.9,18.9,0,0,0,5.35-5.31C298.4,93.22,298.32,92.67,298.25,92.21Z"/><path class="cls-10" d="M296.56,105.13c-6.77,2.36-6,9.5-12.26,20-3.22,5.45-6.22,5.37-6.22,5.37a144.31,144.31,0,0,1-16.72-1.06c-5.73-.7-6.09,1-2.11,2.43,8,2.88,16.38,6,23.11,5.22s18.23-17.91,18.82-22.37C302,108.56,300,103.93,296.56,105.13Z"/><path class="cls-18" d="M293.07,165h-1.29a64.14,64.14,0,0,1-12.3-1.52c-3.53-.71-5.47-1.11-7.73,0a1.74,1.74,0,1,1-1.5-3.14c3.31-1.58,6.08-1,9.92-.24a60.53,60.53,0,0,0,11.69,1.44c5.84.15,9.39-.72,11.2-2.72,1.6-1.78,2.07-4.77,1.48-9.42-.21-1.59-.41-2.91-.59-4.08a28.05,28.05,0,0,1-.43-8.82c.39-3.13,1.42-7.28,3.81-15.35a1.75,1.75,0,0,1,2.17-1.17,1.73,1.73,0,0,1,1.17,2.16c-4.46,15-4.23,16.49-3.28,22.65.18,1.19.39,2.54.6,4.17.74,5.73,0,9.6-2.35,12.2S299.33,165,293.07,165Z"/><path class="cls-13" d="M231.17,196.23c-7.14,3.49-11,5.49-13.27,5.3-.54-.05-1-.1-1.36-.16-2.55,1.51-6.62,3.28-2,3.62,5.38.4,8-1.79,11.36-2.79s7.57-1.59,6-4.18A5.51,5.51,0,0,1,231.17,196.23Z"/><path class="cls-13" d="M285.83,190c-.18,5.66-.95,11.26-4.41,12.32a5.79,5.79,0,0,1-2.49.22c-.55.67-1.21.68-2.1,1.67-1.35,1.49,7.62.45,8.67,0s1.49-9.27,2.61-11.51C289,190.87,287.18,190.44,285.83,190Z"/><path class="cls-20" d="M258.32,136.51H235.64a1.74,1.74,0,0,1-1.58-1l-9.17-19.73a1.74,1.74,0,0,1,3.16-1.47l8.7,18.72h21.57a1.75,1.75,0,0,1,0,3.49Z"/><path class="cls-10" d="M263.07,129.66c-4.59-.07-9.13-2.8-11.39-2.4s-9.63,5.51-8.7,5.71,6.77-2.83,7-2.88a9.78,9.78,0,0,0,4.59,2.89c3.12.79,0-2.34,9.7.58C270.53,135.46,263.07,129.66,263.07,129.66Z"/><path class="cls-21" d="M300.51,97.83l.67,5.43s-5.93.35-8.88,2-7.31,6.46-7.31,6.46l3.56-6.13.51-3.92Z"/><path class="cls-21" d="M298,104.47c-4.4-.82-6.44,3.12-9.3,9.57S281,128.31,280,129.32s-16.34,0-16.34,0-.47,4.45,0,5,3.12.47,3.12.47,1.06.84,2.06,1.52,9.43,1.93,13.35,1.73,7.51-.53,8-1.13,11.23-17.07,11.89-23S300.23,104.89,298,104.47Z"/><path class="cls-22" d="M285,77.37c-8.33.4-7,12.93-7,12.93s2.16.67,6.69-.08a24.87,24.87,0,0,1-.2-4.78,31.29,31.29,0,0,0,1.2,4.48c1,.44,2,0,3.89-.39A8.2,8.2,0,0,0,295,95.77c2,.64,4.17,1.39,6.56.2s1.07-13.42-.2-15.88c-1.9-3.69-5.07-7-10.55-5.25A41.12,41.12,0,0,0,285,77.37Z"/><path class="cls-22" d="M299.48,92.25l3.41,5s-3.78,9.43,7.2,13.71c8.6,3.35,7.59,9.24,3.7,15.17s2.33,11.11,2.33,11.11.95-6.57,9.3-7.81c11.4-1.69,14.62-17,6.11-24.63-7-6.33-9.18-1.09-13.95-6.77s-13.76-1.84-13.76-1.84l-3.3-4.81Z"/><path class="cls-22" d="M335.45,120.19a.23.23,0,0,1-.14,0,.3.3,0,0,1-.12-.41c2.86-5.24.52-11.58-.65-13.3-.13-.18-.25-.36-.37-.56-1.16-1.8-2.59-4-10.27-5.43A12.2,12.2,0,0,1,319,97.86c-3.27-2.4-7-5.12-15-1.42a.3.3,0,0,1-.4-.15.3.3,0,0,1,.15-.4c8.38-3.85,12.24-1,15.65,1.48A11.75,11.75,0,0,0,324,99.86c7.93,1.42,9.45,3.79,10.67,5.69.12.19.24.38.36.55,1.23,1.8,3.68,8.45.68,13.93A.32.32,0,0,1,335.45,120.19Z"/><path class="cls-22" d="M297.66,97.35a11.44,11.44,0,0,1-1.77-.14c-2.91-.44-6.82-2.09-7.13-11.4a.31.31,0,0,1,.29-.31.32.32,0,0,1,.32.29c.12,3.84.88,6.68,2.26,8.44A6.32,6.32,0,0,0,296,96.61c2.7.41,4.49-.09,5.32-1.48a.3.3,0,0,1,.52.31C301.06,96.71,299.66,97.35,297.66,97.35Z"/><polygon class="cls-18" points="184.33 205.04 186.57 205.04 195.28 138.47 190.36 138.47 184.33 205.04"/><polygon class="cls-18" points="260.3 205.04 258.06 205.04 249.35 138.47 254.28 138.47 260.3 205.04"/><path class="cls-23" d="M348.1,148.85c3.87,3.53,2.19,7.07-.68,13.64s-3.36,30.82-3.36,30.82l2.35-.34s-.33-24.92,2.87-31.66,4.54-10.1,7.41-7.92S348.1,148.85,348.1,148.85Z"/><path class="cls-24" d="M346,144.27c.47-2.1,3.26-4.36,7-6.29-.56,3.09-2.34,8.15-.49,9.18,2.48,1.4.24-5.65,1.2-9.53a45.57,45.57,0,0,1,11.61-3.81s0,0,0,0c-2.18,5.56-5,7.75-3.87,8.59.89.63,3.78-5.79,7.59-9.08,2.86-.15,5.29.24,6.72,1.37,2.22,1.75,3.7,3.31,1.47,8.65a10,10,0,0,1-4.83,1.75c-5.05.51-7.41.68-3.88,2.36,1.74.83,4.64-.05,7-.58-.76,1.41-1.7,3-2.84,4.82a17.81,17.81,0,0,1-2.37,3,7.52,7.52,0,0,1-3.8,0c-2.35-1-8.42-4.21-9.93-2.86s11.23,2.15,10.35,5.5c-6.17,3.55-13.22,1.86-14.46-1.4C350.73,151.61,344.55,150.58,346,144.27Z"/><path class="cls-23" d="M358.71,168.21c-6.74-5.05-13.64-.33-17.18,5.06s-1,17.51-1,17.51,1.35,0,1.35-.5-3.71-14.32,5.05-20.55c5.48-3.9,9.43-2,9.93-.17s-2.18,5.22-2.18,5.22Z"/><path class="cls-24" d="M343.21,157.83c6.74,0,8.93,10.44,7.08,16.5s-4.38,17.35-4.38,17.35L344.22,190s6.4-15.83,4.89-22.9-5.22-8.25-5.9-8.25S343.21,157.83,343.21,157.83Z"/><path class="cls-23" d="M348.86,174.38a4.84,4.84,0,0,1,1.78-1.49c-.1.5-.21,1-.35,1.44-.85,2.77-1.83,6.61-2.65,10-.08-.43-.19-1.1-.37-2.12,0-.24-.07-.51-.1-.79A63,63,0,0,0,348.86,174.38Z"/><path class="cls-24" d="M350.71,174.43c12.79-5.39,6.05-12.78,17.33-7.9a8.25,8.25,0,0,1,2.74,2.41,8.4,8.4,0,0,1-3.58.28c-3.37-.5-2.19,2.19,3.37,2.87a11.74,11.74,0,0,1,2.6.55c2.65,5.08,3.85,11.77-1.76,14.1a12.68,12.68,0,0,1-4,.82c-1.72-1.38.43-9.33-2.24-8.23s.8,6.82.34,8.27a37.29,37.29,0,0,1-8-1.12,4,4,0,0,1-2.12-2.44c-.84-3.53,4.72-5.72,4.89-8.75.15-2.79-2,6.13-7.85,7.44C347.2,180.28,344.72,177,350.71,174.43Z"/><path class="cls-24" d="M341.59,164.9c1.34-2.86-2.19-3.53-2-1.34.15,1.93.17,6.65-1.82,7.93a31.15,31.15,0,0,1-11.63-3.86,1.48,1.48,0,0,1,.15-.88c1.52-3,11.28-5.55,8.25-6.56-2.41-.81-6.64,3.94-10.05,6.33-2-1.55-3.42-3.4-3.42-5.47,0-2.8,3.4-6,7.8-7.48,2,.2,3.81,1.29,6.68,2.91,4.24,2.41,3.26-1.48-.75-3.79a12.07,12.07,0,0,1,9.46,5.19s-.24,1.52,1.36,3.85c4.36,6.37-.67,10.09-6.69,9.85A38.87,38.87,0,0,1,341.59,164.9Z"/><path class="cls-23" d="M358.3,167.93c3.3,2.54,6.95,5.52,11.44,7.54s3.6,8.61,3.6,8.61.67-5.69-3.07-7.64-6.21-4.26-9.06-4.71a41,41,0,0,1-4.41-.9s.89-1.8.37-2.47S358.3,167.93,358.3,167.93Z"/><path class="cls-23" d="M374.54,138c-12.06,3.22-20.89,10.93-22.53,12.8s-1.65,2.4-1.65,2.4l1.27,2.39.6-.29s-1-2,1.57-4.65A46.13,46.13,0,0,1,367.2,141C370.87,139.47,374.54,138,374.54,138Z"/><path class="cls-20" d="M343.57,188.24h0a8.23,8.23,0,0,1,8.23,8.23v8.28a0,0,0,0,1,0,0H335.34a0,0,0,0,1,0,0v-8.28A8.23,8.23,0,0,1,343.57,188.24Z" transform="translate(687.15 392.99) rotate(180)"/><rect class="cls-3" x="335.34" y="190.13" width="16.46" height="1.16"/><rect class="cls-3" x="335.34" y="192.25" width="16.46" height="0.68"/><rect class="cls-2" x="39.51" y="184.11" width="6.93" height="6.24" rx="3.12" transform="translate(85.95 374.46) rotate(-180)"/><rect class="cls-2" x="26.91" y="184.11" width="6.93" height="6.24" rx="3.12" transform="translate(60.74 374.46) rotate(180)"/><rect class="cls-2" x="14.3" y="184.11" width="6.93" height="6.24" rx="3.12" transform="translate(35.54 374.46) rotate(-180)"/><rect class="cls-2" x="367.85" y="69.02" width="6.93" height="6.24" rx="3.12" transform="translate(443.46 -299.18) rotate(90)"/><rect class="cls-2" x="367.85" y="81.62" width="6.93" height="6.24" rx="3.12" transform="translate(456.06 -286.58) rotate(90)"/><rect class="cls-2" x="367.85" y="94.22" width="6.93" height="6.24" rx="3.12" transform="translate(468.66 -273.97) rotate(90)"/></g></g></svg>